<svg width="77" height="56" viewBox="0 0 77 56" fill="none" xmlns="http://www.w3.org/2000/svg">
<path d="M45.204 13.7496C44.4796 12.9587 45.9814 7.74805 37.1635 4.19239C35.7133 4.45557 34.0831 11.7838 42.6514 14.0255C45.2127 15.3059 44.8093 17.4402 44.8093 18.6265H46.4568C46.4568 18.6265 45.7828 14.8634 48.7933 13.4844C50.8417 12.5465 56.4988 12.2457 58 3.79291C55.1378 2.13797 44.973 5.36398 45.204 13.7496ZM43.126 12.3236C42.9515 12.4445 42.7118 12.4008 42.5909 12.2262C41.7524 11.0117 39.4334 8.20932 38.4082 7.1868C38.2578 7.03709 38.2578 6.79337 38.4082 6.64363C38.5579 6.49324 38.8016 6.49324 38.9514 6.64363C40.0404 7.73465 42.3325 10.5048 43.2234 11.7884C43.3442 11.963 43.3006 12.2027 43.126 12.3236ZM53.8736 6.08705C51.0699 7.85883 48.7784 10.8069 47.7452 12.4081C47.6304 12.5861 47.392 12.6371 47.2141 12.5223C47.0362 12.4068 46.9852 12.1691 47.1006 11.9905C48.1809 10.3248 50.5012 7.31699 53.462 5.4378C53.6413 5.32367 53.8783 5.37738 53.9924 5.55665C54.1059 5.73591 54.0529 5.97293 53.8736 6.08705Z" fill="#01B35D"/>
<rect x="44" y="14" width="3" height="16" fill="#01B35D"/>
<g clip-path="url(#clip0_365_57150)">
<path fill-rule="evenodd" clip-rule="evenodd" d="M42.6053 19.7633C43.6313 20.559 43.7917 21.4382 43.477 22.1841L44.4792 22.9613L44.1412 23.3971L43.139 22.62C42.4949 23.1105 41.6035 23.174 40.5774 22.3783C38.9707 21.1323 37.5832 18.486 37.8367 18.1592C38.0902 17.8323 40.9345 18.4676 42.6053 19.7633Z" fill="#01B35D"/>
<rect width="3.70074" height="0.632167" rx="0.316083" transform="matrix(0.818539 0.574451 -0.561664 0.827366 39.6553 19.3336)" fill="white"/>
</g>
<path d="M14.6221 30C13.4608 27.9373 12.2041 25.9007 10.8521 23.89C9.50015 21.8793 8.06148 19.9813 6.53615 18.196V30H2.53215V11.982H5.83415C6.40615 12.554 7.03882 13.256 7.73215 14.088C8.42548 14.92 9.12748 15.8127 9.83815 16.766C10.5661 17.702 11.2855 18.6813 11.9961 19.704C12.7068 20.7093 13.3741 21.68 13.9981 22.616V11.982H18.0281V30H14.6221ZM29.2305 30.364C27.9652 30.364 26.8732 30.1907 25.9545 29.844C25.0358 29.48 24.2732 28.986 23.6665 28.362C23.0772 27.7207 22.6352 26.9667 22.3405 26.1C22.0632 25.216 21.9245 24.2453 21.9245 23.188V11.982H25.9805V22.85C25.9805 23.578 26.0585 24.202 26.2145 24.722C26.3878 25.2247 26.6132 25.6407 26.8905 25.97C27.1852 26.282 27.5318 26.5073 27.9305 26.646C28.3465 26.7847 28.7972 26.854 29.2825 26.854C30.2705 26.854 31.0678 26.5507 31.6745 25.944C32.2985 25.3373 32.6105 24.306 32.6105 22.85V11.982H36.6665V23.188C36.6665 24.2453 36.5192 25.216 36.2245 26.1C35.9298 26.984 35.4792 27.7467 34.8725 28.388C34.2658 29.012 33.4945 29.4973 32.5585 29.844C31.6225 30.1907 30.5132 30.364 29.2305 30.364ZM58.3375 11.774C61.0415 11.774 63.1128 12.2593 64.5515 13.23C65.9902 14.1833 66.7095 15.674 66.7095 17.702C66.7095 18.9673 66.4148 19.9987 65.8255 20.796C65.2535 21.576 64.4215 22.1913 63.3295 22.642C63.6935 23.0927 64.0748 23.6127 64.4735 24.202C64.8722 24.774 65.2622 25.3807 65.6435 26.022C66.0422 26.646 66.4235 27.3047 66.7875 27.998C67.1515 28.674 67.4895 29.3413 67.8015 30H63.2515C62.9222 29.4107 62.5842 28.8127 62.2375 28.206C61.9082 27.5993 61.5615 27.01 61.1975 26.438C60.8508 25.866 60.5042 25.3287 60.1575 24.826C59.8108 24.306 59.4642 23.838 59.1175 23.422H57.1155V30H53.0595V12.242C53.9435 12.0687 54.8535 11.9473 55.7895 11.878C56.7428 11.8087 57.5922 11.774 58.3375 11.774ZM58.5715 15.232C58.2768 15.232 58.0082 15.2407 57.7655 15.258C57.5402 15.2753 57.3235 15.2927 57.1155 15.31V20.198H58.2595C59.7848 20.198 60.8768 20.0073 61.5355 19.626C62.1942 19.2447 62.5235 18.5947 62.5235 17.676C62.5235 16.792 62.1855 16.168 61.5095 15.804C60.8508 15.4227 59.8715 15.232 58.5715 15.232ZM70.4013 11.982H74.4573V30H70.4013V11.982ZM8.85896 52.266C6.71829 52.266 5.08429 51.6707 3.95696 50.48C2.84229 49.2893 2.28496 47.5983 2.28496 45.407C2.28496 44.3177 2.45596 43.3487 2.79796 42.5C3.13996 41.6387 3.60863 40.9167 4.20396 40.334C4.79929 39.7387 5.50863 39.289 6.33196 38.985C7.15529 38.681 8.04829 38.529 9.01096 38.529C9.56829 38.529 10.075 38.5733 10.531 38.662C10.987 38.738 11.386 38.833 11.728 38.947C12.07 39.0483 12.355 39.156 12.583 39.27C12.811 39.384 12.9756 39.4727 13.077 39.536L12.222 41.93C11.8166 41.7147 11.3416 41.531 10.797 41.379C10.265 41.227 9.65696 41.151 8.97296 41.151C8.51696 41.151 8.06729 41.227 7.62396 41.379C7.19329 41.531 6.80696 41.778 6.46496 42.12C6.13563 42.4493 5.86963 42.88 5.66696 43.412C5.46429 43.944 5.36296 44.59 5.36296 45.35C5.36296 45.958 5.42629 46.528 5.55296 47.06C5.69229 47.5793 5.90763 48.029 6.19896 48.409C6.50296 48.789 6.89563 49.093 7.37696 49.321C7.85829 49.5363 8.44096 49.644 9.12496 49.644C9.55563 49.644 9.94196 49.6187 10.284 49.568C10.626 49.5173 10.93 49.4603 11.196 49.397C11.462 49.321 11.6963 49.2387 11.899 49.15C12.1016 49.0613 12.2853 48.979 12.45 48.903L13.267 51.278C12.849 51.5313 12.26 51.7593 11.5 51.962C10.74 52.1647 9.85963 52.266 8.85896 52.266ZM17.1819 45.407C17.1819 46.053 17.2579 46.6357 17.4099 47.155C17.5745 47.6743 17.8025 48.124 18.0939 48.504C18.3979 48.8713 18.7652 49.1563 19.1959 49.359C19.6265 49.5617 20.1205 49.663 20.6779 49.663C21.2225 49.663 21.7102 49.5617 22.1409 49.359C22.5842 49.1563 22.9515 48.8713 23.2429 48.504C23.5469 48.124 23.7749 47.6743 23.9269 47.155C24.0915 46.6357 24.1739 46.053 24.1739 45.407C24.1739 44.761 24.0915 44.1783 23.9269 43.659C23.7749 43.127 23.5469 42.6773 23.2429 42.31C22.9515 41.93 22.5842 41.6387 22.1409 41.436C21.7102 41.2333 21.2225 41.132 20.6779 41.132C20.1205 41.132 19.6265 41.2397 19.1959 41.455C18.7652 41.6577 18.3979 41.949 18.0939 42.329C17.8025 42.6963 17.5745 43.146 17.4099 43.678C17.2579 44.1973 17.1819 44.7737 17.1819 45.407ZM27.2329 45.407C27.2329 46.5343 27.0619 47.5287 26.7199 48.39C26.3905 49.2387 25.9345 49.9543 25.3519 50.537C24.7692 51.107 24.0725 51.5377 23.2619 51.829C22.4639 52.1203 21.6025 52.266 20.6779 52.266C19.7785 52.266 18.9299 52.1203 18.1319 51.829C17.3339 51.5377 16.6372 51.107 16.0419 50.537C15.4465 49.9543 14.9779 49.2387 14.6359 48.39C14.2939 47.5287 14.1229 46.5343 14.1229 45.407C14.1229 44.2797 14.3002 43.2917 14.6549 42.443C15.0095 41.5817 15.4845 40.8597 16.0799 40.277C16.6879 39.6943 17.3845 39.2573 18.1699 38.966C18.9679 38.6747 19.8039 38.529 20.6779 38.529C21.5772 38.529 22.4259 38.6747 23.2239 38.966C24.0219 39.2573 24.7185 39.6943 25.3139 40.277C25.9092 40.8597 26.3779 41.5817 26.7199 42.443C27.0619 43.2917 27.2329 44.2797 27.2329 45.407ZM33.5606 38.681C35.5366 38.681 37.0503 39.0357 38.1016 39.745C39.1529 40.4417 39.6786 41.531 39.6786 43.013C39.6786 43.9377 39.4633 44.6913 39.0326 45.274C38.6146 45.844 38.0066 46.2937 37.2086 46.623C37.4746 46.9523 37.7533 47.3323 38.0446 47.763C38.3359 48.181 38.6209 48.6243 38.8996 49.093C39.1909 49.549 39.4696 50.0303 39.7356 50.537C40.0016 51.031 40.2486 51.5187 40.4766 52H37.1516C36.9109 51.5693 36.6639 51.1323 36.4106 50.689C36.1699 50.2457 35.9166 49.815 35.6506 49.397C35.3973 48.979 35.1439 48.5863 34.8906 48.219C34.6373 47.839 34.3839 47.497 34.1306 47.193H32.6676V52H29.7036V39.023C30.3496 38.8963 31.0146 38.8077 31.6986 38.757C32.3953 38.7063 33.0159 38.681 33.5606 38.681ZM33.7316 41.208C33.5163 41.208 33.3199 41.2143 33.1426 41.227C32.9779 41.2397 32.8196 41.2523 32.6676 41.265V44.837H33.5036C34.6183 44.837 35.4163 44.6977 35.8976 44.419C36.3789 44.1403 36.6196 43.6653 36.6196 42.994C36.6196 42.348 36.3726 41.892 35.8786 41.626C35.3973 41.3473 34.6816 41.208 33.7316 41.208ZM51.9569 38.833V41.36H47.9859V52H45.0219V41.36H41.0509V38.833H51.9569ZM53.8618 52V38.833H62.7538V41.322H56.8258V43.906H62.0888V46.338H56.8258V49.511H63.1908V52H53.8618ZM74.8794 40.885C74.474 41.303 73.9927 41.8477 73.4354 42.519C72.878 43.1777 72.3017 43.8997 71.7064 44.685C71.111 45.4703 70.522 46.281 69.9394 47.117C69.3567 47.953 68.8374 48.751 68.3814 49.511H75.0884V52H64.7334V50.233C65.088 49.587 65.5187 48.8713 66.0254 48.086C66.5447 47.288 67.083 46.49 67.6404 45.692C68.1977 44.8813 68.7614 44.1023 69.3314 43.355C69.914 42.595 70.4524 41.9173 70.9464 41.322H65.0374V38.833H74.8794V40.885Z" fill="#01B35D"/>
<defs>
<clipPath id="clip0_365_57150">
<rect width="5.51526" height="8.19189" fill="white" transform="translate(36.1467 20.3383) rotate(-52.2073)"/>
</clipPath>
</defs>
</svg>
