<!DOCTYPE svg PUBLIC "-//W3C//DTD SVG 1.1//EN" "http://www.w3.org/Graphics/SVG/1.1/DTD/svg11.dtd">
<!-- Uploaded to: SVG Repo, www.svgrepo.com, Transformed by: SVG Repo Mixer Tools -->
<svg width="800px" height="800px" viewBox="0 0 512 512" version="1.1" xml:space="preserve" xmlns="http://www.w3.org/2000/svg" xmlns:xlink="http://www.w3.org/1999/xlink" fill="#000000">
<g id="SVGRepo_bgCarrier" stroke-width="0"/>
<g id="SVGRepo_tracerCarrier" stroke-linecap="round" stroke-linejoin="round"/>
<g id="SVGRepo_iconCarrier"> <g id="_x36_45_x2C__dish_x2C__love_x2C__wedding_x2C__heart"> <g> <path d="M260.53,45.56c10.01,0,18.12,8.11,18.12,18.12c0,10.01-8.11,18.13-18.12,18.13 c-10.011,0-18.12-8.12-18.12-18.13C242.41,53.67,250.52,45.56,260.53,45.56z" style="fill:#FBB14F;"/> <path d="M247.41,74.43c0-10.01,8.109-18.12,18.12-18.12c5.119,0,9.733,2.13,13.028,5.542 c-0.917-9.151-8.636-16.292-18.028-16.292c-10.011,0-18.12,8.11-18.12,18.12c0,4.891,1.944,9.322,5.093,12.583 C247.442,75.66,247.41,75.049,247.41,74.43z" style="fill:#E59A41;"/> <path d="M314.56,122.11c13.221,0,23.921,9.78,23.921,21.84c0,21.84-23.921,34.28-47.811,56.12 c-23.88-21.84-47.771-34.28-47.771-56.12c0-12.06,10.7-21.84,23.891-21.84c11.94,0,17.91,5.46,23.88,16.38 C296.65,127.57,302.62,122.11,314.56,122.11z" style="fill:#EF3E5C;"/> <g> <g> <g> <path d="M258.9,148.95c0-11.856,10.342-21.501,23.225-21.824c-3.961-3.338-8.733-5.016-15.335-5.016 c-13.19,0-23.891,9.78-23.891,21.84c0,21.84,23.891,34.28,47.771,56.12c1.688-1.543,3.374-3.034,5.054-4.49 C275.998,179.176,258.9,167.426,258.9,148.95z" style="fill:#E42A53;"/> </g> </g> </g> <path d="M216.89,168.34c5.82,5.81,6.23,14.83,0.92,20.15c-9.62,9.61-25.63,4.56-45.77,3.66 c-0.9-20.14-5.94-36.14,3.68-45.75c5.31-5.31,14.33-4.91,20.13,0.9c5.26,5.26,5.49,10.29,3.311,17.73 C206.6,162.85,211.63,163.08,216.89,168.34z" style="fill:#EF3E5C;"/> <g> <g> <g> <path d="M184.97,156.15c3.887-3.887,9.758-4.701,14.902-2.587c-0.672-2.159-1.953-4.194-4.022-6.263 c-5.8-5.81-14.82-6.21-20.13-0.9c-9.62,9.61-4.58,25.61-3.68,45.75c2.957,0.132,5.823,0.354,8.595,0.606 C179.171,176.908,176.855,164.256,184.97,156.15z" style="fill:#E42A53;"/> </g> </g> </g> <path d="M423.63,244.44v4.53H88.37v-4.53c0-92.58,75.05-167.63,167.63-167.63 c46.29,0,88.2,18.76,118.53,49.1C404.87,156.24,423.63,198.15,423.63,244.44z M338.48,143.95c0-12.06-10.7-21.84-23.921-21.84 c-11.939,0-17.909,5.46-23.89,16.38c-5.97-10.92-11.939-16.38-23.88-16.38c-13.19,0-23.891,9.78-23.891,21.84 c0,21.84,23.891,34.28,47.771,56.12C314.56,178.23,338.48,165.79,338.48,143.95z M217.81,188.49c5.311-5.32,4.9-14.34-0.92-20.15 c-5.26-5.26-10.29-5.49-17.729-3.31c2.18-7.44,1.949-12.47-3.311-17.73c-5.8-5.81-14.82-6.21-20.13-0.9 c-9.62,9.61-4.58,25.61-3.68,45.75C192.18,193.05,208.189,198.1,217.81,188.49z" style="fill:#FFECB2;"/> <g> <path d="M265.5,88.06c46.29,0,88.2,18.76,118.53,49.1c1.61,1.609,3.18,3.258,4.724,4.932 c-4.397-5.693-9.144-11.104-14.224-16.182C344.2,95.57,302.29,76.81,256,76.81c-92.58,0-167.63,75.05-167.63,167.63v4.53h9.646 C101.545,159.507,175.172,88.06,265.5,88.06z" style="fill:#E8D295;"/> </g> <path d="M444.18,255.6c4.101,4.099,6.641,9.759,6.641,16.019c0,12.51-10.15,22.66-22.66,22.66H83.84 c-6.26,0-11.92-2.539-16.021-6.639c-4.1-4.102-6.64-9.762-6.64-16.021c0-12.51,10.15-22.649,22.66-22.649h4.53h335.26h4.53 C434.42,248.97,440.08,251.5,444.18,255.6z" style="fill:#FBB14F;"/> <path d="M72.18,284.869c0-12.51,10.15-22.648,22.66-22.648h4.53h335.26h4.53 c3.847,0,7.465,0.957,10.635,2.645c-1.105-3.539-3.056-6.707-5.615-9.265c-4.1-4.1-9.76-6.63-16.02-6.63h-4.53H88.37h-4.53 c-12.51,0-22.66,10.14-22.66,22.649c0,6.26,2.54,11.92,6.64,16.021c1.582,1.58,3.396,2.926,5.388,3.988 C72.54,289.494,72.18,287.225,72.18,284.869z" style="fill:#E59A41;"/> <path d="M142.729,449.59v16.85H88.37v-144.98h54.359v18.461v0.471V444V449.59z M124.609,439.25 c0-5-4.05-9.061-9.06-9.061c-5,0-9.06,4.061-9.06,9.061c0,5.01,4.06,9.07,9.06,9.07C120.56,448.32,124.609,444.26,124.609,439.25z " style="fill:#415A6B;"/> <g> <polygon points="97.43,331.459 142.729,331.459 142.729,321.459 88.37,321.459 88.37,466.439 97.43,466.439 " style="fill:#344D5B;"/> </g> <path d="M305.27,383.85c19.36-16.539,56.131-37.77,81.471-41.42c12.29-1.83,35.67,2.621,36.87,19.279 c1.85,26.711-110.181,92.67-143.9,95.301c-56.7,4.49-68.891-33.859-136.98-7.42V444V340.391c8.11-3.801,15.98-6.791,23-8.24 c29.25-6.16,134.971,4.57,140.41,41.199c0.141,0.891,0.23,1.74,0.28,2.57C306.61,378.949,306.21,381.609,305.27,383.85z" style="fill:#FFC592;"/> <path d="M160.729,342.9c29.25-6.16,134.971,4.57,140.41,41.199c0.141,0.891,0.23,1.74,0.279,2.57 c0.191,3.029-0.209,5.689-1.15,7.93c19.361-16.539,56.131-37.77,81.471-41.42c12.291-1.83,35.67,2.621,36.871,19.279 c0.046,0.664,0.002,1.357-0.089,2.066c3.475-4.824,5.341-9.186,5.09-12.816c-1.2-16.658-24.58-21.109-36.87-19.279 c-25.34,3.65-62.11,24.881-81.471,41.42c0.94-2.24,1.341-4.9,1.15-7.93c-0.05-0.83-0.14-1.68-0.28-2.57 c-5.439-36.629-111.16-47.359-140.41-41.199c-7.02,1.449-14.89,4.439-23,8.24v8.508C149.06,346.176,155.163,344.049,160.729,342.9 z" style="fill:#EFA873;"/> <path d="M115.55,430.189c5.01,0,9.06,4.061,9.06,9.061c0,5.01-4.05,9.07-9.06,9.07 c-5,0-9.06-4.061-9.06-9.07C106.49,434.25,110.55,430.189,115.55,430.189z" style="fill:#344D5B;"/> <path d="M274.285,402.607c-18.154,0-40.628-5.264-58.546-10.082c-1.262-0.338-2.333-0.627-3.185-0.848 c-2.673-0.693-4.277-3.422-3.584-6.096c0.692-2.672,3.422-4.279,6.095-3.584c0.875,0.227,1.975,0.523,3.27,0.871 c40.169,10.801,65.39,12.713,74.957,5.688c2.381-1.75,3.552-4.051,3.683-7.244c0.056-1.121-0.02-2.314-0.223-3.59 c-0.433-2.727,1.427-5.289,4.153-5.723c2.727-0.43,5.29,1.426,5.724,4.152c0.311,1.959,0.424,3.848,0.336,5.615 c-0.254,6.16-2.936,11.309-7.753,14.848C293.314,400.947,284.48,402.607,274.285,402.607z" style="fill:#EFA873;"/> <path d="M188.035,226.78h-90.61c-2.762,0-5-2.239-5-5s2.238-5,5-5h90.61c2.762,0,5,2.239,5,5 S190.797,226.78,188.035,226.78z" style="fill:#E8D295;"/> </g> </g> <g id="Layer_1"/> </g>
</svg>